<svg xmlns="http://www.w3.org/2000/svg" fill="#fff" x="0px" y="0px" viewBox="0 0 100 100" enable-background="new 0 0 100 100" xml:space="preserve"><circle fill="none" stroke="#fff" stroke-width="8" stroke-miterlimit="10" cx="50" cy="50" r="42.5"/><path fill="#fff" d="M50,31.8c5.9,0,6.7,0,9,0.2c2.2,0.1,3.3,0.5,4.2,0.7c1,0.3,1.8,0.9,2.6,1.7c0.7,0.7,1.3,1.6,1.7,2.6 c0.3,0.7,0.7,2,0.7,4.2c0.1,2.3,0.2,3.1,0.2,9s0,6.7-0.2,9c-0.1,2.2-0.5,3.3-0.7,4.2c-0.7,1.9-2.2,3.5-4.2,4.2 c-0.7,0.3-2,0.7-4.2,0.7c-2.3,0.1-3.1,0.2-9,0.2s-6.7,0-9-0.2c-2.2-0.1-3.3-0.5-4.2-0.7c-1-0.3-1.8-0.9-2.6-1.7 c-0.7-0.7-1.3-1.6-1.7-2.6c-0.3-0.7-0.7-2-0.7-4.2c-0.1-2.3-0.2-3.1-0.2-9s0-6.7,0.2-9c0.1-2.2,0.5-3.3,0.7-4.2 c0.3-1,0.9-1.8,1.7-2.6s1.6-1.3,2.6-1.7c0.7-0.3,2-0.7,4.2-0.7C43.3,31.8,44.1,31.8,50,31.8 M50,27.8c-6,0-6.8,0-9.2,0.2 c-2.3,0.1-4,0.5-5.4,1c-1.5,0.6-2.8,1.4-3.9,2.6c-1.2,1.1-2,2.4-2.6,3.9c-0.6,1.4-0.9,3-1,5.4c-0.1,2.3-0.2,3.2-0.2,9.2 s0,6.8,0.2,9.2c0.1,2.3,0.5,4,1,5.4c0.6,1.5,1.4,2.8,2.6,3.9c1.1,1.2,2.4,2,3.9,2.6c1.4,0.6,3,0.9,5.4,1c2.3,0.1,3.2,0.2,9.2,0.2 s6.8,0,9.2-0.2c2.3-0.1,4-0.5,5.4-1c3-1.2,5.3-3.5,6.5-6.5c0.6-1.4,0.9-3,1-5.4c0.1-2.3,0.2-3.2,0.2-9.2s0-6.8-0.2-9.2 c-0.1-2.3-0.5-4-1-5.4c-0.6-1.5-1.4-2.8-2.6-3.9c-1.1-1.2-2.4-2-3.9-2.6c-1.4-0.6-3-0.9-5.4-1C56.8,27.8,56,27.8,50,27.8L50,27.8 L50,27.8z"/> <path fill="#fff" d="M50,38.6c-6.3,0-11.4,5.1-11.4,11.4S43.7,61.4,50,61.4S61.4,56.3,61.4,50l0,0C61.4,43.7,56.3,38.6,50,38.6z M50,57.4c-4.1,0-7.4-3.3-7.4-7.4s3.3-7.4,7.4-7.4s7.4,3.3,7.4,7.4S54.1,57.4,50,57.4z"/> <circle fill="#fff" cx="61.8" cy="38.2" r="2.7"/></svg>