<svg xmlns="http://www.w3.org/2000/svg" fill="#fff" x="0px" y="0px" viewBox="0 0 100 100" enable-background="new 0 0 100 100" xml:space="preserve"><circle fill="none" stroke="#fff" stroke-width="8" stroke-miterlimit="10" cx="50" cy="50" r="42.5"/><path class="st1" d="M72,44.3c-0.4,0-0.8,0.1-1.2,0.1c-4.4,0-8.5-2.2-11-5.9v20.2c0,8.2-6.7,14.9-14.9,14.9S30,66.9,30,58.6 s6.7-14.9,14.9-14.9l0,0c0.3,0,0.6,0,0.9,0v7.3c-0.3,0-0.6-0.1-0.9-0.1c-4.2,0-7.6,3.4-7.6,7.6s3.4,7.6,7.6,7.6 c4.2,0,7.9-3.3,7.9-7.5l0.1-34.3h7c0.7,6.3,5.7,11.2,12.1,11.7L72,44.3"/></svg>